<svg width="24" height="25" viewBox="0 0 24 25" fill="none" xmlns="http://www.w3.org/2000/svg">
<path d="M22.882 11.8916C22.5569 11.6126 19.6472 9.16539 17.6222 9.16539C15.0977 9.16539 13.879 11.367 13.5865 12.5314L13.5422 12.7095C13.1656 12.9243 12.8122 13.1776 12.4877 13.4651C12.1416 13.7739 11.8336 14.1229 11.5701 14.5046C11.5491 14.4045 11.5285 14.3044 11.503 14.2076C11.2052 13.1198 10.7275 12.1575 10.2126 11.2223C9.79637 10.4831 9.33663 9.77627 8.85513 9.08664L8.87875 9.03902C9.38275 8.02202 9.82788 5.56614 7.90825 3.55352C6.34488 1.91364 2.27125 1.44452 1.81225 1.39727L1 1.31177L1.07988 2.15027C1.12563 2.63177 1.5715 6.89514 3.13225 8.53089C4.00112 9.44177 5.08788 9.92364 6.2755 9.92364C7.25125 9.92364 8.05562 9.60039 8.41412 9.42864C8.84239 10.1216 9.23746 10.8345 9.598 11.565C10.0442 12.4909 10.4496 13.4561 10.654 14.4203C10.7031 14.6599 10.3653 23.8118 10.3653 23.8118H12.0355C12.0355 23.8118 11.7745 16.2589 11.8206 16.0774C12.0156 15.3225 12.4401 14.6126 12.9996 14.0344C13.2401 13.7886 13.503 13.5659 13.7849 13.3691C14.2735 14.3501 15.478 15.6784 17.6222 15.6784C19.6472 15.6784 22.5569 13.2315 22.882 12.9525L23.5 12.4219L22.882 11.8916Z" fill="#28AAE1"/>
</svg>
