<svg width="28" height="26" viewBox="0 0 28 26" fill="none" xmlns="http://www.w3.org/2000/svg">
<path d="M24.6667 6.00021H21.76C21.9067 5.58688 22 5.13355 22 4.66688C22.0015 3.80665 21.7252 2.96893 21.2122 2.27834C20.6993 1.58775 19.9772 1.08118 19.1532 0.833998C18.3293 0.586811 17.4475 0.612209 16.6392 0.906414C15.8308 1.20062 15.139 1.74791 14.6667 2.46688L14 3.36021L13.3334 2.45355C12.6134 1.38688 11.4 0.666879 10 0.666879C7.78669 0.666879 6.00002 2.45355 6.00002 4.66688C6.00002 5.13355 6.09335 5.58688 6.24002 6.00021H3.33335C1.85335 6.00021 0.68002 7.18688 0.68002 8.66688L0.666687 23.3335C0.666687 24.8135 1.85335 26.0002 3.33335 26.0002H24.6667C26.1467 26.0002 27.3334 24.8135 27.3334 23.3335V8.66688C27.3334 7.18688 26.1467 6.00021 24.6667 6.00021ZM18 3.33355C18.7334 3.33355 19.3334 3.93355 19.3334 4.66688C19.3334 5.40021 18.7334 6.00021 18 6.00021C17.2667 6.00021 16.6667 5.40021 16.6667 4.66688C16.6667 3.93355 17.2667 3.33355 18 3.33355ZM10 3.33355C10.7334 3.33355 11.3334 3.93355 11.3334 4.66688C11.3334 5.40021 10.7334 6.00021 10 6.00021C9.26669 6.00021 8.66669 5.40021 8.66669 4.66688C8.66669 3.93355 9.26669 3.33355 10 3.33355ZM24.6667 23.3335H3.33335V20.6669H24.6667V23.3335ZM24.6667 16.6669H3.33335V10.0002C3.33335 9.26688 3.93335 8.66688 4.66669 8.66688H10.1067L8.13335 11.3602C8.02882 11.5016 7.95344 11.6623 7.91157 11.8331C7.86971 12.0038 7.86221 12.1812 7.8895 12.3549C7.91679 12.5286 7.97834 12.6951 8.07056 12.8448C8.16278 12.9945 8.28383 13.1244 8.42669 13.2269C9.01335 13.6535 9.85335 13.5202 10.28 12.9335L14 7.86688L17.72 12.9335C18.1467 13.5202 18.9867 13.6535 19.5734 13.2269C20.1734 12.8002 20.3067 11.9602 19.8667 11.3602L17.8934 8.66688H23.3334C24.0667 8.66688 24.6667 9.26688 24.6667 10.0002V16.6669Z" fill="#28AAE1"/>
</svg>
