<svg width="14" height="22" viewBox="0 0 14 22" fill="none" xmlns="http://www.w3.org/2000/svg">
<path d="M11.908 1.6798C10.54 0.693395 8.82159 0.200195 6.75279 0.200195C5.17959 0.200195 3.85119 0.546995 2.77239 1.2418C1.05999 2.329 0.150393 4.1758 0.0399933 6.7798H4.00839C4.00839 6.0202 4.23039 5.2918 4.67199 4.5862C5.11479 3.883 5.86599 3.5314 6.92559 3.5314C8.00319 3.5314 8.74599 3.817 9.15039 4.387C9.55719 4.9594 9.75999 5.5918 9.75999 6.2854C9.75999 6.8902 9.45759 7.4434 9.09159 7.945C8.87348 8.25639 8.60548 8.52966 8.29839 8.7538C8.29839 8.7538 6.14679 10.1338 5.20239 11.2426C4.65519 11.8846 4.60599 12.8482 4.55679 14.2282C4.55439 14.3266 4.59159 14.5306 4.93479 14.5306H8.01999C8.32719 14.5306 8.39079 14.3038 8.39439 14.2018C8.41599 13.7002 8.47119 13.4422 8.56359 13.1518C8.73639 12.6034 9.20919 12.1258 9.73839 11.713L10.8304 10.9606C11.8168 10.1914 12.6028 9.5614 12.9508 9.067C13.5436 8.2558 13.9612 7.255 13.9612 6.067C13.96 4.129 13.276 2.6686 11.908 1.6798ZM6.68919 16.909C5.32239 16.867 4.19439 17.8138 4.15119 19.297C4.10919 20.7778 5.18079 21.7582 6.54879 21.7978C7.97559 21.8398 9.07359 20.9254 9.11799 19.4422C9.15879 17.959 8.11719 16.951 6.68919 16.909Z" fill="#28AAE1"/>
</svg>
