<svg width="24" height="24" viewBox="0 0 24 24" fill="none" xmlns="http://www.w3.org/2000/svg">
<path d="M4.125 23H19.875C20.4953 23 21 22.5478 21 21.9922V7.88281C21 7.87139 20.994 7.86198 20.9932 7.85123C20.9917 7.83578 20.9873 7.82234 20.9835 7.80756C20.9717 7.76089 20.9487 7.71708 20.916 7.67923C20.9107 7.67319 20.9115 7.6658 20.9062 7.65975L14.9062 1.61287C14.904 1.61086 14.901 1.61086 14.8988 1.60884C14.853 1.56599 14.7952 1.5349 14.7315 1.51881C14.7172 1.51478 14.7045 1.51344 14.6895 1.51142C14.6678 1.50806 14.6475 1.5 14.625 1.5H4.125C3.50475 1.5 3 1.95217 3 2.50781V21.9922C3 22.5478 3.50475 23 4.125 23ZM15 2.71945L19.7902 7.54688H15.375C15.21 7.54688 15 7.26469 15 7.04297V2.71945ZM3.75 2.50781C3.75 2.41872 3.78951 2.33327 3.85983 2.27027C3.93016 2.20727 4.02554 2.17188 4.125 2.17188H14.25V7.04297C14.25 7.58652 14.7413 8.21875 15.375 8.21875H20.25V21.9922C20.25 22.0813 20.2105 22.1667 20.1402 22.2297C20.0698 22.2927 19.9745 22.3281 19.875 22.3281H4.125C3.915 22.3281 3.75 22.1803 3.75 21.9922V2.50781Z" fill="#28AAE1"/>
<path d="M7.125 10.9062H16.875C16.9745 10.9062 17.0698 10.8709 17.1402 10.8079C17.2105 10.7449 17.25 10.6594 17.25 10.5703C17.25 10.4812 17.2105 10.3958 17.1402 10.3328C17.0698 10.2698 16.9745 10.2344 16.875 10.2344H7.125C7.02554 10.2344 6.93016 10.2698 6.85984 10.3328C6.78951 10.3958 6.75 10.4812 6.75 10.5703C6.75 10.6594 6.78951 10.7449 6.85984 10.8079C6.93016 10.8709 7.02554 10.9062 7.125 10.9062Z" fill="#28AAE1"/>
<path d="M7.125 13.5938H16.875C16.9745 13.5938 17.0698 13.5584 17.1402 13.4954C17.2105 13.4324 17.25 13.3469 17.25 13.2578C17.25 13.1687 17.2105 13.0833 17.1402 13.0203C17.0698 12.9573 16.9745 12.9219 16.875 12.9219H7.125C7.02554 12.9219 6.93016 12.9573 6.85984 13.0203C6.78951 13.0833 6.75 13.1687 6.75 13.2578C6.75 13.3469 6.78951 13.4324 6.85984 13.4954C6.93016 13.5584 7.02554 13.5938 7.125 13.5938Z" fill="#28AAE1"/>
<path d="M7.125 8.21875H11.625C11.7245 8.21875 11.8198 8.18336 11.8902 8.12036C11.9605 8.05736 12 7.97191 12 7.88281C12 7.79372 11.9605 7.70827 11.8902 7.64527C11.8198 7.58227 11.7245 7.54688 11.625 7.54688H7.125C7.02554 7.54688 6.93016 7.58227 6.85984 7.64527C6.78951 7.70827 6.75 7.79372 6.75 7.88281C6.75 7.97191 6.78951 8.05736 6.85984 8.12036C6.93016 8.18336 7.02554 8.21875 7.125 8.21875Z" fill="#28AAE1"/>
<path d="M7.125 16.2812H16.875C16.9745 16.2812 17.0698 16.2459 17.1402 16.1829C17.2105 16.1199 17.25 16.0344 17.25 15.9453C17.25 15.8562 17.2105 15.7708 17.1402 15.7078C17.0698 15.6448 16.9745 15.6094 16.875 15.6094H7.125C7.02554 15.6094 6.93016 15.6448 6.85984 15.7078C6.78951 15.7708 6.75 15.8562 6.75 15.9453C6.75 16.0344 6.78951 16.1199 6.85984 16.1829C6.93016 16.2459 7.02554 16.2812 7.125 16.2812Z" fill="#28AAE1"/>
<path d="M7.125 18.9688H16.875C16.9745 18.9688 17.0698 18.9334 17.1402 18.8704C17.2105 18.8074 17.25 18.7219 17.25 18.6328C17.25 18.5437 17.2105 18.4583 17.1402 18.3953C17.0698 18.3323 16.9745 18.2969 16.875 18.2969H7.125C7.02554 18.2969 6.93016 18.3323 6.85984 18.3953C6.78951 18.4583 6.75 18.5437 6.75 18.6328C6.75 18.7219 6.78951 18.8074 6.85984 18.8704C6.93016 18.9334 7.02554 18.9688 7.125 18.9688Z" fill="#28AAE1"/>
</svg>
