<svg width="24" height="24" viewBox="0 0 24 24" fill="none" xmlns="http://www.w3.org/2000/svg">
<path d="M4.66666 3.99984H15.3333V10.5332H16.6667V3.99984C16.6667 3.64622 16.5262 3.30708 16.2761 3.05703C16.0261 2.80698 15.687 2.6665 15.3333 2.6665H4.66666C4.31304 2.6665 3.9739 2.80698 3.72385 3.05703C3.4738 3.30708 3.33333 3.64622 3.33333 3.99984V19.9998C3.33333 20.3535 3.4738 20.6926 3.72385 20.9426C3.9739 21.1927 4.31304 21.3332 4.66666 21.3332H15.3333C15.687 21.3332 16.0261 21.1927 16.2761 20.9426C16.5262 20.6926 16.6667 20.3535 16.6667 19.9998H4.66666V3.99984Z" fill="#28AAE1"/>
<path d="M18.7733 11.5202C18.6458 11.411 18.4817 11.3539 18.314 11.3604C18.1462 11.3668 17.987 11.4364 17.8683 11.5551C17.7496 11.6739 17.68 11.833 17.6735 12.0008C17.667 12.1686 17.7241 12.3326 17.8333 12.4602L20.0867 14.6668H10.42C10.2432 14.6668 10.0736 14.7371 9.94859 14.8621C9.82356 14.9871 9.75333 15.1567 9.75333 15.3335C9.75333 15.5103 9.82356 15.6799 9.94859 15.8049C10.0736 15.9299 10.2432 16.0002 10.42 16.0002H20.0867L17.8333 18.3068C17.7635 18.3666 17.7069 18.4401 17.6668 18.5229C17.6268 18.6056 17.6043 18.6957 17.6008 18.7875C17.5972 18.8793 17.6127 18.9708 17.6462 19.0564C17.6798 19.1419 17.7306 19.2196 17.7956 19.2846C17.8605 19.3496 17.9382 19.4004 18.0238 19.4339C18.1093 19.4674 18.2009 19.4829 18.2927 19.4794C18.3845 19.4758 18.4746 19.4533 18.5573 19.4133C18.64 19.3733 18.7136 19.3166 18.7733 19.2468L22.6667 15.3802L18.7733 11.5202Z" fill="#28AAE1"/>
</svg>
