<svg width="24" height="25" viewBox="0 0 24 25" fill="none" xmlns="http://www.w3.org/2000/svg">
<g clip-path="url(#clip0)">
<path d="M6.37797 23.7165H21.2222C21.9746 23.7165 22.6184 23.4567 23.1537 22.9372C23.689 22.4177 23.9712 21.7571 24.0001 20.9556V20.8665C24.0001 20.154 23.812 19.486 23.4358 18.8626L16.578 9.46651V2.83135H17.4895C17.7209 2.83135 17.938 2.72744 18.1405 2.51963C18.3431 2.31182 18.4444 2.08916 18.4444 1.85166C18.4444 1.61416 18.3431 1.39893 18.1405 1.20596C17.938 1.01299 17.7209 0.916504 17.4895 0.916504H10.1107C9.87925 0.916504 9.66222 1.01299 9.45967 1.20596C9.25712 1.39893 9.15584 1.61416 9.15584 1.85166C9.15584 2.08916 9.25712 2.31182 9.45967 2.51963C9.66222 2.72744 9.87925 2.83135 10.1107 2.83135H11.0222V9.37744L4.25116 18.7735C3.87499 19.397 3.68691 20.0353 3.68691 20.6884L3.6001 20.8665C3.62903 21.6681 3.9184 22.3435 4.46818 22.8927C5.01797 23.4419 5.65457 23.7165 6.37797 23.7165ZM11.0222 12.5837L11.4997 12.0493C12.1941 11.0399 12.6571 9.89697 12.8886 8.62041V2.83135H14.7116V8.53135C14.972 9.92666 15.435 11.0548 16.1005 11.9157L16.578 12.4946L18.4444 15.0774H9.15584L11.0222 12.5837ZM5.72691 19.9314L8.24435 16.4134V17.0813H19.8333L21.8733 19.9314C21.9312 19.9907 22.018 20.2728 22.1337 20.7774C22.1337 21.0446 22.0397 21.2821 21.8516 21.4899C21.6635 21.6978 21.4537 21.8017 21.2222 21.8017H6.37797C6.14648 21.8017 5.93669 21.6978 5.74861 21.4899C5.56052 21.2821 5.46648 21.0446 5.46648 20.7774C5.46648 20.3915 5.55329 20.1095 5.72691 19.9314Z" fill="white"/>
<path d="M8.37312 7.29076C8.39008 7.30908 8.4 7.338 8.4 7.3684C8.4 7.39881 8.39008 7.42772 8.37312 7.44605L6.68365 9.29618C6.65896 9.32305 6.62485 9.32333 6.60016 9.29671C6.57538 9.26996 6.56623 9.22327 6.57757 9.18214L6.85911 8.16737C5.57954 8.09882 4.85417 7.44809 4.34678 6.69296C4.53558 6.3862 4.69226 6.07523 4.83521 5.79152C4.90611 5.65047 4.97417 5.51597 5.04242 5.38727C5.42725 6.03176 5.89569 6.49232 6.85511 6.55492L6.57759 5.55453C6.56635 5.5134 6.57549 5.46671 6.60018 5.43995C6.61246 5.42696 6.62705 5.42016 6.64163 5.42016C6.6564 5.42016 6.67136 5.42696 6.68375 5.44039L8.37312 7.29076ZM1.71635 4.79248C1.72878 4.80613 1.7436 4.81276 1.75843 4.81276C1.77296 4.81276 1.78773 4.80599 1.79994 4.79288C1.82472 4.76633 1.83396 4.7195 1.82248 4.67837L1.54714 3.68524C2.50228 3.77198 2.972 4.24151 3.35779 4.88926C3.42512 4.76236 3.49226 4.62987 3.56211 4.491C3.70579 4.20569 3.86352 3.89275 4.0536 3.58366C3.54534 2.8253 2.81944 2.16694 1.53931 2.07159L1.82246 1.05083C1.83385 1.0097 1.82461 0.963012 1.79992 0.936258C1.77519 0.909711 1.74108 0.909986 1.71648 0.936878L0.0268303 2.78692C0.00986788 2.80525 0 2.83416 0 2.86457C0 2.89504 0.00996462 2.92395 0.0268303 2.94228L1.71635 4.79248ZM4.65814 5.61086C5.16277 4.60874 5.57011 3.80185 6.85281 3.68537L6.57757 4.67851C6.56623 4.71964 6.57538 4.76633 6.60008 4.79301C6.61246 4.8061 6.62694 4.8129 6.64163 4.8129C6.6563 4.8129 6.67117 4.80613 6.68365 4.7926L8.37312 2.94239C8.39008 2.92407 8.4 2.89516 8.4 2.86468C8.4 2.83428 8.39008 2.80536 8.37312 2.78704L6.68365 0.936855C6.65896 0.909963 6.62485 0.909688 6.60016 0.936235C6.57538 0.962989 6.56623 1.00968 6.57757 1.05081L6.86082 2.07157C4.97854 2.212 4.29396 3.56917 3.73877 4.67167C3.2357 5.67098 2.83194 6.47103 1.54498 6.55492L1.82246 5.55453C1.83385 5.5134 1.82461 5.46671 1.79992 5.43995C1.78773 5.42696 1.77304 5.42016 1.75842 5.42016C1.74368 5.42016 1.72878 5.42696 1.71633 5.44039L0.0268303 7.29076C0.00986788 7.30908 0 7.338 0 7.3684C0 7.39881 0.00996462 7.42772 0.0268303 7.44605L1.71635 9.29618C1.74108 9.32305 1.7752 9.32333 1.79979 9.29671C1.82462 9.26996 1.83386 9.22327 1.82238 9.18214L1.54089 8.16737C3.42083 8.06678 4.10492 6.70979 4.65814 5.61086Z" fill="white"/>
</g>
<defs>
<clipPath id="clip0">
<rect width="24" height="24" fill="white" transform="translate(0 0.316406)"/>
</clipPath>
</defs>
</svg>
