<svg width="22" height="25" viewBox="0 0 22 25" fill="none" xmlns="http://www.w3.org/2000/svg">
<path fill-rule="evenodd" clip-rule="evenodd" d="M1.28147 0.72349C8.64227 -0.22575 12.7693 -0.0763123 20.1302 0.72349C20.808 9.55405 20.8066 14.4108 20.1302 22.907C12.7685 24.0605 8.6429 24.0326 1.28147 22.907C0.821611 14.4242 0.762471 9.54367 1.28147 0.72349ZM18.0268 11.936C18.0268 15.9398 14.7811 19.1855 10.7773 19.1855C6.77354 19.1855 3.52783 15.9398 3.52783 11.936C3.52783 7.93223 6.77354 4.68652 10.7773 4.68652C14.7811 4.68652 18.0268 7.93223 18.0268 11.936ZM19.7185 0.97395C12.4347 0.0716662 8.48746 0.0486374 1.69141 0.97395V1.02236C8.75064 2.29435 12.3723 2.60841 19.7185 1.02236V0.97395Z" fill="#28AAE1"/>
<path d="M14.8958 8.03018C14.807 7.83195 14.5532 7.82402 14.447 8.01115C13.9554 8.86591 13.0753 9.39875 12.0698 9.39875H10.8012C9.1202 9.39875 7.75639 10.7626 7.75639 12.4435C7.75639 12.5546 7.76908 12.6608 7.78018 12.7686C8.79194 12.0439 10.2525 11.4286 12.3236 11.4286C12.4631 11.4286 12.5773 11.5428 12.5773 11.6823C12.5773 11.8219 12.4631 11.9361 12.3236 11.9361C8.3368 11.9361 6.64631 14.3798 6.27206 15.298C6.16739 15.5565 6.29109 15.8515 6.54958 15.9577C6.80965 16.0656 7.10461 15.9403 7.21245 15.6834C7.23624 15.6263 7.54389 14.9238 8.35266 14.2466C8.86647 14.9428 9.84334 15.6073 11.1263 15.4709C13.616 15.2901 15.3684 13.0573 15.3684 10.3233C15.3684 9.5272 15.1971 8.70257 14.8958 8.03018Z" fill="#28AAE1"/>
<path d="M4.11763 18.566C4.49736 21.1644 4.51593 22.5434 1.37364 23.7302C0.914419 23.7882 0.711747 23.6232 0.611992 23.2999C0.519806 23.0012 1.18252 19.6986 3.32366 18.1441L4.11763 18.566Z" fill="#28AAE1"/>
<path d="M16.519 18.8863C19.1139 19.2896 20.437 19.6785 20.6445 23.031C20.5645 23.4869 20.347 23.6319 20.0087 23.6319C19.6961 23.6319 16.7358 22.0248 15.8817 19.5205L16.519 18.8863Z" fill="#28AAE1"/>
</svg>
