<svg width="20" height="22" viewBox="0 0 20 22" fill="none" xmlns="http://www.w3.org/2000/svg">
<path d="M18.3999 0.200005H15.9999C15.6816 0.200005 15.3764 0.326433 15.1514 0.551476C14.9263 0.77652 14.7999 1.08174 14.7999 1.4V21.7904H19.5999V1.4C19.5999 1.08174 19.4735 0.77652 19.2484 0.551476C19.0234 0.326433 18.7182 0.200005 18.3999 0.200005ZM11.1999 7.4H8.7999C8.48164 7.4 8.17642 7.52643 7.95137 7.75148C7.72633 7.97652 7.5999 8.28174 7.5999 8.6V21.7904H12.3999V8.6C12.3999 8.28174 12.2735 7.97652 12.0484 7.75148C11.8234 7.52643 11.5182 7.4 11.1999 7.4ZM3.9999 14.6H1.5999C1.28164 14.6 0.976418 14.7264 0.751374 14.9515C0.52633 15.1765 0.399902 15.4817 0.399902 15.8V21.7904H5.1999V15.8C5.1999 15.4817 5.07347 15.1765 4.84843 14.9515C4.62339 14.7264 4.31816 14.6 3.9999 14.6Z" fill="#28AAE1"/>
</svg>
