<svg width="20" height="22" viewBox="0 0 20 22" fill="none" xmlns="http://www.w3.org/2000/svg">
<path d="M18.4 0.199951H16C15.6817 0.199951 15.3765 0.326379 15.1515 0.551423C14.9264 0.776467 14.8 1.08169 14.8 1.39995V21.7903H19.6V1.39995C19.6 1.08169 19.4736 0.776467 19.2485 0.551423C19.0235 0.326379 18.7182 0.199951 18.4 0.199951ZM11.2 7.39995H8.79999C8.48173 7.39995 8.17651 7.52638 7.95146 7.75142C7.72642 7.97647 7.59999 8.28169 7.59999 8.59995V21.7903H12.4V8.59995C12.4 8.28169 12.2736 7.97647 12.0485 7.75142C11.8235 7.52638 11.5183 7.39995 11.2 7.39995ZM3.99999 14.6H1.59999C1.28173 14.6 0.976509 14.7264 0.751466 14.9514C0.526422 15.1765 0.399994 15.4817 0.399994 15.8V21.7903H5.19999V15.8C5.19999 15.4817 5.07356 15.1765 4.84852 14.9514C4.62348 14.7264 4.31825 14.6 3.99999 14.6Z" fill="white"/>
</svg>
