<svg width="24" height="20" viewBox="0 0 24 20" fill="none" xmlns="http://www.w3.org/2000/svg">
<path d="M12 19.6498H0.333328V17.3165H7.04166C6.19 14.0382 3.61166 11.4715 0.333328 10.6198C1.07999 10.4332 1.86166 10.3165 2.66666 10.3165C7.82333 10.3165 12 14.4932 12 19.6498ZM23.6667 10.6198C22.92 10.4332 22.1383 10.3165 21.3333 10.3165C17.915 10.3165 14.94 12.1598 13.3067 14.9015C13.645 15.6715 13.925 16.4765 14.0883 17.3165C14.24 18.0748 14.3217 18.8565 14.3217 19.6498H16.655H23.655V17.3165H16.9467C17.81 14.0382 20.3883 11.4715 23.6667 10.6198ZM16.2467 9.17315C17.1567 6.73482 18.8483 4.69315 21.0183 3.33982C16.0133 3.50315 12 7.59815 12 12.6498C12 12.6615 12 12.6732 12 12.6732C13.1083 11.1915 14.5667 9.98982 16.2467 9.17315ZM11.3233 6.64149C10.3433 4.08649 8.35999 2.02149 5.81666 0.983154C7.49666 3.15315 8.5 5.85982 8.5 8.81149C8.5 9.05649 8.465 9.28982 8.45333 9.52315C8.955 9.80315 9.42166 10.1298 9.87666 10.4798C10.1217 9.10315 10.635 7.80815 11.3233 6.64149Z" fill="white"/>
</svg>
