<svg width="24" height="24" viewBox="0 0 24 24" fill="none" xmlns="http://www.w3.org/2000/svg">
<path fill-rule="evenodd" clip-rule="evenodd" d="M23.7255 0.180584C23.8114 0.255683 23.8805 0.350187 23.928 0.457272C23.9755 0.564357 24.0001 0.68135 24 0.799804V21.6005C23.9999 21.7853 23.9398 21.9645 23.8298 22.1074C23.7199 22.2503 23.567 22.3483 23.397 22.3845L15.897 23.9845C15.8 24.0051 15.7 24.0051 15.603 23.9845L8.25 22.4165L0.897 23.9845C0.788233 24.0077 0.675998 24.0049 0.568381 23.9762C0.460764 23.9476 0.360444 23.8938 0.274649 23.8189C0.188854 23.7439 0.11972 23.6495 0.0722277 23.5426C0.0247353 23.4357 6.69791e-05 23.3188 0 23.2005L0 2.39985C0.000104673 2.21497 0.0602342 2.03584 0.170165 1.89291C0.280096 1.74997 0.433042 1.65207 0.603 1.61583L8.103 0.0157785C8.20004 -0.00491132 8.29996 -0.00491132 8.397 0.0157785L15.75 1.58383L23.103 0.0157785C23.2117 -0.00755692 23.324 -0.00487924 23.4316 0.0236187C23.5392 0.0521167 23.6396 0.105726 23.7255 0.180584ZM15 3.05588L9 1.77583V20.9444L15 22.2245V3.05588ZM16.5 22.2245L22.5 20.9444V1.77583L16.5 3.05588V22.2245ZM7.5 20.9444V1.77583L1.5 3.05588V22.2245L7.5 20.9444Z" fill="#28AAE1"/>
</svg>
