<svg width="24" height="24" viewBox="0 0 24 24" fill="none" xmlns="http://www.w3.org/2000/svg">
<path fill-rule="evenodd" clip-rule="evenodd" d="M23.7255 0.180523C23.8114 0.255622 23.8805 0.350126 23.928 0.457211C23.9755 0.564296 24.0001 0.681289 24 0.799743V21.6004C23.9999 21.7853 23.9398 21.9644 23.8298 22.1074C23.7199 22.2503 23.567 22.3482 23.397 22.3844L15.897 23.9845C15.8 24.0051 15.7 24.0051 15.603 23.9845L8.25 22.4164L0.897 23.9845C0.788233 24.0077 0.675998 24.0048 0.568381 23.9762C0.460764 23.9475 0.360444 23.8938 0.274649 23.8188C0.188854 23.7438 0.11972 23.6494 0.0722277 23.5425C0.0247353 23.4356 6.69791e-05 23.3188 0 23.2005L0 2.39979C0.000104673 2.21491 0.0602342 2.03578 0.170165 1.89285C0.280096 1.74991 0.433042 1.652 0.603 1.61577L8.103 0.0157175C8.20004 -0.00497236 8.29996 -0.00497236 8.397 0.0157175L15.75 1.58377L23.103 0.0157175C23.2117 -0.00761795 23.324 -0.00494028 23.4316 0.0235577C23.5392 0.0520557 23.6396 0.105665 23.7255 0.180523ZM15 3.05581L9 1.77577V20.9444L15 22.2244V3.05581ZM16.5 22.2244L22.5 20.9444V1.77577L16.5 3.05581V22.2244ZM7.5 20.9444V1.77577L1.5 3.05581V22.2244L7.5 20.9444Z" fill="white"/>
</svg>
