<svg width="24" height="25" viewBox="0 0 24 25" fill="none" xmlns="http://www.w3.org/2000/svg">
<path d="M3.2 24.1726H20.3C21.1667 24.1726 21.9083 23.8972 22.525 23.3464C23.1417 22.7956 23.4667 22.0953 23.5 21.2455V21.151C23.5 20.3957 23.2833 19.6875 22.85 19.0265L14.95 9.06473V2.03012H16C16.2667 2.03012 16.5167 1.91996 16.75 1.69964C16.9833 1.47931 17.1 1.24325 17.1 0.991455C17.1 0.739657 16.9833 0.511465 16.75 0.306879C16.5167 0.102293 16.2667 0 16 0H7.5C7.23333 0 6.98333 0.102293 6.75 0.306879C6.51667 0.511465 6.4 0.739657 6.4 0.991455C6.4 1.24325 6.51667 1.47931 6.75 1.69964C6.98333 1.91996 7.23333 2.03012 7.5 2.03012H8.55V8.97031L0.75 18.9321C0.316667 19.593 0.1 20.2698 0.1 20.9622L0 21.151C0.0333333 22.0009 0.366667 22.7169 1 23.2992C1.63333 23.8815 2.36667 24.1726 3.2 24.1726ZM8.55 12.3696L9.1 11.803C9.9 10.7329 10.4333 9.52112 10.7 8.1677V2.03012H12.8V8.07328C13.1 9.55259 13.6333 10.7486 14.4 11.6614L14.95 12.2752L17.1 15.0135H6.4L8.55 12.3696ZM2.45 20.1596L5.35 16.4298V17.138H18.7L21.05 20.1596C21.1167 20.2225 21.2167 20.5215 21.35 21.0566C21.35 21.3399 21.2417 21.5917 21.025 21.812C20.8083 22.0323 20.5667 22.1425 20.3 22.1425H3.2C2.93333 22.1425 2.69167 22.0323 2.475 21.812C2.25833 21.5917 2.15 21.3399 2.15 21.0566C2.15 20.6474 2.25 20.3484 2.45 20.1596Z" fill="white"/>
</svg>
