<svg width="22" height="25" viewBox="0 0 22 25" fill="none" xmlns="http://www.w3.org/2000/svg">
<path fill-rule="evenodd" clip-rule="evenodd" d="M1.28147 0.657083C8.64227 -0.292157 12.7693 -0.142719 20.1302 0.657083C20.808 9.48765 20.8066 14.3444 20.1302 22.8405C12.7685 23.9941 8.6429 23.9662 1.28147 22.8405C0.821611 14.3578 0.762471 9.47727 1.28147 0.657083ZM18.0268 11.8696C18.0268 15.8734 14.7811 19.1191 10.7773 19.1191C6.77354 19.1191 3.52783 15.8734 3.52783 11.8696C3.52783 7.86583 6.77354 4.62012 10.7773 4.62012C14.7811 4.62012 18.0268 7.86583 18.0268 11.8696ZM19.7185 0.907544C12.4347 0.00525998 8.48746 -0.0177689 1.69141 0.907544V0.955951C8.75064 2.22794 12.3723 2.54201 19.7185 0.955951V0.907544Z" fill="white"/>
<path d="M14.8958 7.96377C14.807 7.76554 14.5532 7.75761 14.447 7.94474C13.9554 8.7995 13.0753 9.33234 12.0698 9.33234H10.8012C9.1202 9.33234 7.75639 10.6962 7.75639 12.3771C7.75639 12.4881 7.76908 12.5944 7.78018 12.7022C8.79194 11.9775 10.2525 11.3622 12.3236 11.3622C12.4631 11.3622 12.5773 11.4764 12.5773 11.6159C12.5773 11.7555 12.4631 11.8697 12.3236 11.8697C8.3368 11.8697 6.64631 14.3134 6.27206 15.2316C6.16739 15.4901 6.29109 15.7851 6.54958 15.8913C6.80965 15.9992 7.10461 15.8739 7.21245 15.617C7.23624 15.5599 7.54389 14.8574 8.35266 14.1802C8.86647 14.8764 9.84334 15.5409 11.1263 15.4045C13.616 15.2237 15.3684 12.9909 15.3684 10.2569C15.3684 9.4608 15.1971 8.63616 14.8958 7.96377V7.96377Z" fill="white"/>
<path d="M4.11763 18.4996C4.49736 21.098 4.51593 22.477 1.37364 23.6638C0.914419 23.7218 0.711747 23.5568 0.611992 23.2335C0.519806 22.9348 1.18252 19.6322 3.32366 18.0777L4.11763 18.4996Z" fill="white"/>
<path d="M16.519 18.8196C19.1139 19.2229 20.437 19.6118 20.6445 22.9643C20.5645 23.4202 20.347 23.5652 20.0087 23.5652C19.6961 23.5652 16.7358 21.9582 15.8817 19.4539L16.519 18.8196Z" fill="white"/>
</svg>
