<svg width="25" height="25" viewBox="0 0 25 25" fill="none" xmlns="http://www.w3.org/2000/svg">
<path d="M23.9658 11.3664C23.619 11.0667 20.5154 8.43747 18.3554 8.43747C15.6626 8.43747 14.3626 10.8028 14.0506 12.0537L14.0034 12.2451C13.6017 12.4759 13.2247 12.7479 12.8786 13.0569C12.5094 13.3886 12.1808 13.7635 11.8998 14.1736C11.8774 14.0661 11.8554 13.9585 11.8282 13.8546C11.5106 12.6858 11.001 11.652 10.4518 10.6473C10.0078 9.85318 9.5174 9.09376 9.0038 8.35287L9.029 8.3017C9.5666 7.2091 10.0414 4.57065 7.9938 2.4084C6.3262 0.646619 1.981 0.142619 1.4914 0.0918561L0.625 0L0.7102 0.900835C0.759 1.41813 1.2346 5.99845 2.8994 7.7558C3.8262 8.73439 4.9854 9.25209 6.2522 9.25209C7.293 9.25209 8.151 8.90481 8.5334 8.72029C8.99022 9.46476 9.41163 10.2307 9.7962 11.0155C10.2722 12.0102 10.7046 13.0472 10.9226 14.083C10.975 14.3404 10.6146 24.1727 10.6146 24.1727H12.3962C12.3962 24.1727 12.1178 16.0583 12.167 15.8633C12.375 15.0523 12.8278 14.2897 13.4246 13.6684C13.6811 13.4044 13.9615 13.1651 14.2622 12.9537C14.7834 14.0077 16.0682 15.4347 18.3554 15.4347C20.5154 15.4347 23.619 12.8059 23.9658 12.5061L24.625 11.9361L23.9658 11.3664Z" fill="#28AAE1"/>
</svg>
